# xmcd
#
# Track frame offsets:
#	150
#	22861
#	36575
#	55063
#	82687
#	99622
#	113484
#	133542
#	152026
#	167012
#	184162
#	202321
#
# Disc length: 2933 seconds
#
# Revision: 0
# Processed by: cddbd v1.5.2PL0 Copyright (c) Steve Scherf et al.
# Submitted via: EasyCDDAExtractor 11.9.9.666
#
DISCID=950b730c
DTITLE=Sininuotti - Kahden vaiheilla
DYEAR=2000
DGENRE=Pop
TTITLE0=Huominen tuo toivon
TTITLE1=Vielä sinua kaipaan
TTITLE2=Ford
TTITLE3=Tunturiin 
TTITLE4=Saana
TTITLE5=Minä odotan vaan
TTITLE6=Pieni enkeli
TTITLE7=Jälleen laskee aurinko
TTITLE8=Kettu ja jänis
TTITLE9=Tukholma
TTITLE10=Saanhan vierelles nukahtaa
TTITLE11=Uinu rakkaani
EXTD=
EXTT0=
EXTT1=
EXTT2=
EXTT3=
EXTT4=
EXTT5=
EXTT6=
EXTT7=
EXTT8=
EXTT9=
EXTT10=
EXTT11=
PLAYORDER=
